<mxfile host="app.diagrams.net" agent="Mozilla/5.0 (Windows NT 10.0; Win64; x64) AppleWebKit/537.36 (KHTML, like Gecko) Chrome/131.0.0.0 Safari/537.36" version="26.0.1">
  <diagram name="Page-1" id="03018318-947c-dd8e-b7a3-06fadd420f32">
    <mxGraphModel dx="3354" dy="1258" grid="1" gridSize="10" guides="1" tooltips="1" connect="1" arrows="1" fold="1" page="1" pageScale="1" pageWidth="1100" pageHeight="850" background="none" math="0" shadow="0">
      <root>
        <mxCell id="0" />
        <mxCell id="1" parent="0" />
        <mxCell id="677b7b8949515195-1" value="" style="whiteSpace=wrap;html=1;rounded=0;shadow=0;labelBackgroundColor=none;strokeColor=#000000;strokeWidth=1;fillColor=none;fontFamily=Verdana;fontSize=12;fontColor=#000000;align=center;comic=1;" parent="1" vertex="1">
          <mxGeometry x="20" y="40" width="1060" height="790" as="geometry" />
        </mxCell>
        <mxCell id="677b7b8949515195-4" value="Manage" style="text;html=1;points=[];align=left;verticalAlign=top;spacingTop=-4;fontSize=14;fontFamily=Verdana" parent="1" vertex="1">
          <mxGeometry x="755.5500000000001" y="100" width="60" height="20" as="geometry" />
        </mxCell>
        <mxCell id="677b7b8949515195-5" value="Schedule" style="text;html=1;points=[];align=left;verticalAlign=top;spacingTop=-4;fontSize=14;fontFamily=Verdana" parent="1" vertex="1">
          <mxGeometry x="918.7" y="50" width="60" height="20" as="geometry" />
        </mxCell>
        <mxCell id="677b7b8949515195-6" value="Students" style="text;html=1;points=[];align=left;verticalAlign=top;spacingTop=-4;fontSize=14;fontFamily=Verdana" parent="1" vertex="1">
          <mxGeometry x="832.4" y="100" width="60" height="20" as="geometry" />
        </mxCell>
        <mxCell id="677b7b8949515195-7" value="Logout" style="text;html=1;points=[];align=left;verticalAlign=top;spacingTop=-4;fontSize=14;fontFamily=Verdana" parent="1" vertex="1">
          <mxGeometry x="1008.7" y="100" width="60" height="20" as="geometry" />
        </mxCell>
        <mxCell id="677b7b8949515195-9" value="" style="line;strokeWidth=1;html=1;rounded=0;shadow=0;labelBackgroundColor=none;fillColor=none;fontFamily=Verdana;fontSize=14;fontColor=#000000;align=center;comic=1;" parent="1" vertex="1">
          <mxGeometry x="20" y="140" width="1060" height="10" as="geometry" />
        </mxCell>
        <mxCell id="677b7b8949515195-15" value="&lt;div style=&quot;&quot;&gt;&lt;font style=&quot;font-size: 18px;&quot;&gt;by Thomas Roth&lt;/font&gt;&lt;/div&gt;" style="whiteSpace=wrap;html=1;rounded=0;shadow=0;labelBackgroundColor=none;strokeWidth=1;fillColor=none;fontFamily=Verdana;fontSize=12;align=left;verticalAlign=top;spacing=10;comic=1;" parent="1" vertex="1">
          <mxGeometry x="20" y="700" width="580" height="130" as="geometry" />
        </mxCell>
        <mxCell id="677b7b8949515195-26" value="" style="whiteSpace=wrap;html=1;rounded=0;shadow=0;labelBackgroundColor=none;strokeWidth=1;fillColor=none;fontFamily=Verdana;fontSize=12;align=center;comic=1;" parent="1" vertex="1">
          <mxGeometry x="600" y="700" width="480" height="130" as="geometry" />
        </mxCell>
        <mxCell id="677b7b8949515195-42" value="External Links" style="text;html=1;points=[];align=left;verticalAlign=top;spacingTop=-4;fontSize=14;fontFamily=Verdana" parent="1" vertex="1">
          <mxGeometry x="640" y="718.68" width="170" height="20" as="geometry" />
        </mxCell>
        <mxCell id="xNktOV-b6tnxYs5pCYwV-17" value="" style="dashed=0;outlineConnect=0;html=1;align=center;labelPosition=center;verticalLabelPosition=bottom;verticalAlign=top;shape=mxgraph.webicons.github;gradientColor=#DFDEDE" parent="1" vertex="1">
          <mxGeometry x="650" y="748.68" width="42.4" height="42.4" as="geometry" />
        </mxCell>
        <mxCell id="xNktOV-b6tnxYs5pCYwV-18" value="" style="dashed=0;outlineConnect=0;html=1;align=center;labelPosition=center;verticalLabelPosition=bottom;verticalAlign=top;shape=mxgraph.weblogos.linkedin;fillColor=#0095DB;gradientColor=#006391" parent="1" vertex="1">
          <mxGeometry x="860" y="748.91" width="27.4" height="28.93" as="geometry" />
        </mxCell>
        <mxCell id="xNktOV-b6tnxYs5pCYwV-19" value="My Github" style="text;html=1;align=left;verticalAlign=middle;whiteSpace=wrap;rounded=0;" parent="1" vertex="1">
          <mxGeometry x="692.4" y="754.88" width="60" height="30" as="geometry" />
        </mxCell>
        <mxCell id="xNktOV-b6tnxYs5pCYwV-20" value="&lt;font style=&quot;font-size: 18px;&quot;&gt;Contact Me&lt;/font&gt;" style="text;strokeColor=none;fillColor=none;html=1;fontSize=24;fontStyle=1;verticalAlign=middle;align=center;" parent="1" vertex="1">
          <mxGeometry x="820" y="708.91" width="100" height="40" as="geometry" />
        </mxCell>
        <mxCell id="xNktOV-b6tnxYs5pCYwV-22" value="" style="shape=message;html=1;html=1;outlineConnect=0;labelPosition=center;verticalLabelPosition=bottom;align=center;verticalAlign=top;" parent="1" vertex="1">
          <mxGeometry x="853.7" y="793.25" width="40" height="25.66" as="geometry" />
        </mxCell>
        <mxCell id="xNktOV-b6tnxYs5pCYwV-23" value="Linked In" style="text;html=1;align=center;verticalAlign=middle;whiteSpace=wrap;rounded=0;" parent="1" vertex="1">
          <mxGeometry x="900" y="752.17" width="60" height="30" as="geometry" />
        </mxCell>
        <mxCell id="xNktOV-b6tnxYs5pCYwV-24" value="thomas.roth@aon.at" style="text;html=1;align=center;verticalAlign=middle;whiteSpace=wrap;rounded=0;" parent="1" vertex="1">
          <mxGeometry x="930" y="791.0799999999999" width="60" height="30" as="geometry" />
        </mxCell>
        <mxCell id="z-67hpvK6l74vBA2kNS7-2" value="" style="line;strokeWidth=2;html=1;" parent="1" vertex="1">
          <mxGeometry x="752.4000000000001" y="120" width="66.3" height="10" as="geometry" />
        </mxCell>
        <mxCell id="HjhiuZLruFTGGM_Ddv_2-158" value="&lt;font face=&quot;Tahoma&quot; style=&quot;font-size: 48px;&quot;&gt;&lt;i style=&quot;&quot;&gt;4th Wall Academy&lt;/i&gt;&lt;/font&gt;" style="text;strokeColor=none;fillColor=none;html=1;fontSize=24;fontStyle=1;verticalAlign=middle;align=center;" parent="1" vertex="1">
          <mxGeometry x="80" y="50" width="360" height="70" as="geometry" />
        </mxCell>
        <mxCell id="cM_1RGHnX2dDhWGxMnlk-1" value="Dashboard" style="text;html=1;points=[];align=left;verticalAlign=top;spacingTop=-4;fontSize=14;fontFamily=Verdana" parent="1" vertex="1">
          <mxGeometry x="918.6999999999999" y="100" width="60" height="20" as="geometry" />
        </mxCell>
        <mxCell id="CBU3p2uWpCq7XRt16fgI-1" value="Add&lt;span style=&quot;background-color: initial;&quot;&gt;&amp;nbsp;Section&lt;/span&gt;" style="text;strokeColor=none;fillColor=none;html=1;fontSize=24;fontStyle=1;verticalAlign=middle;align=center;" parent="1" vertex="1">
          <mxGeometry x="80" y="220" width="220" height="40" as="geometry" />
        </mxCell>
        <mxCell id="CBU3p2uWpCq7XRt16fgI-2" value="&lt;font style=&quot;font-size: 16px;&quot;&gt;Course:&amp;nbsp;&lt;/font&gt;" style="text;html=1;align=right;verticalAlign=middle;whiteSpace=wrap;rounded=0;" parent="1" vertex="1">
          <mxGeometry x="90" y="310" width="90" height="30" as="geometry" />
        </mxCell>
        <mxCell id="CBU3p2uWpCq7XRt16fgI-3" value="&lt;font style=&quot;font-size: 16px;&quot;&gt;Start Date:&amp;nbsp;&lt;/font&gt;" style="text;html=1;align=right;verticalAlign=middle;whiteSpace=wrap;rounded=0;" parent="1" vertex="1">
          <mxGeometry x="90" y="413" width="90" height="30" as="geometry" />
        </mxCell>
        <mxCell id="CBU3p2uWpCq7XRt16fgI-11" value="&lt;font style=&quot;font-size: 16px;&quot;&gt;Save&lt;/font&gt;" style="rounded=1;fillColor=#0057D8;strokeColor=none;html=1;whiteSpace=wrap;fontColor=#ffffff;align=center;verticalAlign=middle;fontStyle=0;fontSize=12;sketch=0;" parent="1" vertex="1">
          <mxGeometry x="100" y="623.5" width="86" height="33" as="geometry" />
        </mxCell>
        <mxCell id="CBU3p2uWpCq7XRt16fgI-12" value="Go Back" style="html=1;shadow=0;dashed=0;shape=mxgraph.bootstrap.rrect;rSize=5;strokeColor=none;strokeWidth=1;fillColor=none;fontColor=#0085FC;whiteSpace=wrap;align=center;verticalAlign=middle;spacingLeft=0;fontStyle=0;fontSize=16;spacing=5;" parent="1" vertex="1">
          <mxGeometry x="210" y="620" width="100" height="40" as="geometry" />
        </mxCell>
        <mxCell id="xDpEaBKd5AiYZeXGHIcU-1" value="Chemistry" style="html=1;shadow=0;dashed=0;shape=mxgraph.bootstrap.rrect;rSize=5;strokeColor=none;strokeWidth=1;fillColor=#6C767D;fontColor=#ffffff;whiteSpace=wrap;align=right;verticalAlign=middle;fontStyle=0;fontSize=14;spacingRight=20;" parent="1" vertex="1">
          <mxGeometry x="180" y="310" width="140" height="30" as="geometry" />
        </mxCell>
        <mxCell id="xDpEaBKd5AiYZeXGHIcU-2" value="" style="shape=triangle;direction=south;fillColor=#ffffff;strokeColor=none;perimeter=none;" parent="xDpEaBKd5AiYZeXGHIcU-1" vertex="1">
          <mxGeometry x="1" y="0.5" width="10" height="5" relative="1" as="geometry">
            <mxPoint x="-17" y="-2.5" as="offset" />
          </mxGeometry>
        </mxCell>
        <mxCell id="xDpEaBKd5AiYZeXGHIcU-4" value="&lt;font face=&quot;Helvetica&quot;&gt;01-09-2022&lt;/font&gt;" style="rounded=1;arcSize=9;fillColor=#F7F8F9;align=left;spacingLeft=5;strokeColor=#DEE1E6;html=1;strokeWidth=2;fontColor=#596780;fontSize=12;sketch=1;hachureGap=4;pointerEvents=0;fontFamily=Architects Daughter;fontSource=https%3A%2F%2Ffonts.googleapis.com%2Fcss%3Ffamily%3DArchitects%2BDaughter;" parent="1" vertex="1">
          <mxGeometry x="180" y="410" width="150" height="33" as="geometry" />
        </mxCell>
        <mxCell id="xDpEaBKd5AiYZeXGHIcU-5" value="" style="shape=mxgraph.gmdl.calendar;fillColor=#5A6881;strokeColor=none;sketch=0;hachureGap=4;pointerEvents=0;fontFamily=Architects Daughter;fontSource=https%3A%2F%2Ffonts.googleapis.com%2Fcss%3Ffamily%3DArchitects%2BDaughter;fontSize=20;" parent="xDpEaBKd5AiYZeXGHIcU-4" vertex="1">
          <mxGeometry x="1" y="0.5" width="18" height="18" relative="1" as="geometry">
            <mxPoint x="-29" y="-9" as="offset" />
          </mxGeometry>
        </mxCell>
        <mxCell id="xDpEaBKd5AiYZeXGHIcU-6" value="&lt;font style=&quot;font-size: 16px;&quot;&gt;End Date:&amp;nbsp;&lt;/font&gt;" style="text;html=1;align=right;verticalAlign=middle;whiteSpace=wrap;rounded=0;" parent="1" vertex="1">
          <mxGeometry x="90" y="456" width="90" height="30" as="geometry" />
        </mxCell>
        <mxCell id="xDpEaBKd5AiYZeXGHIcU-7" value="&lt;font face=&quot;Helvetica&quot;&gt;31-12-2022&lt;/font&gt;" style="rounded=1;arcSize=9;fillColor=#F7F8F9;align=left;spacingLeft=5;strokeColor=#DEE1E6;html=1;strokeWidth=2;fontColor=#596780;fontSize=12;sketch=1;hachureGap=4;pointerEvents=0;fontFamily=Architects Daughter;fontSource=https%3A%2F%2Ffonts.googleapis.com%2Fcss%3Ffamily%3DArchitects%2BDaughter;" parent="1" vertex="1">
          <mxGeometry x="180" y="453" width="150" height="33" as="geometry" />
        </mxCell>
        <mxCell id="xDpEaBKd5AiYZeXGHIcU-8" value="" style="shape=mxgraph.gmdl.calendar;fillColor=#5A6881;strokeColor=none;sketch=0;hachureGap=4;pointerEvents=0;fontFamily=Architects Daughter;fontSource=https%3A%2F%2Ffonts.googleapis.com%2Fcss%3Ffamily%3DArchitects%2BDaughter;fontSize=20;" parent="xDpEaBKd5AiYZeXGHIcU-7" vertex="1">
          <mxGeometry x="1" y="0.5" width="18" height="18" relative="1" as="geometry">
            <mxPoint x="-29" y="-9" as="offset" />
          </mxGeometry>
        </mxCell>
        <mxCell id="xDpEaBKd5AiYZeXGHIcU-9" value="&lt;font style=&quot;font-size: 16px;&quot;&gt;Instructor:&amp;nbsp;&lt;/font&gt;" style="text;html=1;align=right;verticalAlign=middle;whiteSpace=wrap;rounded=0;" parent="1" vertex="1">
          <mxGeometry x="90" y="350" width="90" height="30" as="geometry" />
        </mxCell>
        <mxCell id="xDpEaBKd5AiYZeXGHIcU-10" value="Captain Quantum" style="html=1;shadow=0;dashed=0;shape=mxgraph.bootstrap.rrect;rSize=5;strokeColor=none;strokeWidth=1;fillColor=#6C767D;fontColor=#ffffff;whiteSpace=wrap;align=right;verticalAlign=middle;fontStyle=0;fontSize=14;spacingRight=20;" parent="1" vertex="1">
          <mxGeometry x="180" y="350" width="140" height="30" as="geometry" />
        </mxCell>
        <mxCell id="xDpEaBKd5AiYZeXGHIcU-11" value="" style="shape=triangle;direction=south;fillColor=#ffffff;strokeColor=none;perimeter=none;" parent="xDpEaBKd5AiYZeXGHIcU-10" vertex="1">
          <mxGeometry x="1" y="0.5" width="10" height="5" relative="1" as="geometry">
            <mxPoint x="-17" y="-2.5" as="offset" />
          </mxGeometry>
        </mxCell>
        <mxCell id="xDpEaBKd5AiYZeXGHIcU-12" value="&lt;font style=&quot;font-size: 16px;&quot;&gt;Start Time:&amp;nbsp;&lt;/font&gt;" style="text;html=1;align=right;verticalAlign=middle;whiteSpace=wrap;rounded=0;" parent="1" vertex="1">
          <mxGeometry x="90" y="513" width="90" height="30" as="geometry" />
        </mxCell>
        <mxCell id="xDpEaBKd5AiYZeXGHIcU-16" value="&lt;font style=&quot;font-size: 14px;&quot;&gt;&amp;nbsp;09 : 00&lt;/font&gt;" style="strokeWidth=1;html=1;shadow=0;dashed=0;shape=mxgraph.ios.iTextInput;buttonText=;fontSize=8;whiteSpace=wrap;align=left;fillColor=none;" parent="1" vertex="1">
          <mxGeometry x="180" y="514.5" width="90" height="27" as="geometry" />
        </mxCell>
        <mxCell id="xDpEaBKd5AiYZeXGHIcU-17" value="&lt;font style=&quot;font-size: 14px;&quot;&gt;&amp;nbsp;09 : 45&lt;/font&gt;" style="strokeWidth=1;html=1;shadow=0;dashed=0;shape=mxgraph.ios.iTextInput;buttonText=;fontSize=8;whiteSpace=wrap;align=left;fillColor=none;" parent="1" vertex="1">
          <mxGeometry x="180" y="551.5" width="90" height="27" as="geometry" />
        </mxCell>
        <mxCell id="xDpEaBKd5AiYZeXGHIcU-18" value="&lt;font style=&quot;font-size: 16px;&quot;&gt;End Time:&amp;nbsp;&lt;/font&gt;" style="text;html=1;align=right;verticalAlign=middle;whiteSpace=wrap;rounded=0;" parent="1" vertex="1">
          <mxGeometry x="90" y="550" width="90" height="30" as="geometry" />
        </mxCell>
        <mxCell id="xDpEaBKd5AiYZeXGHIcU-21" value="&lt;b&gt;&lt;font style=&quot;font-size: 16px;&quot;&gt;Selected Instructor is already assigned to a section at that time&lt;/font&gt;&lt;/b&gt;" style="rounded=0;whiteSpace=wrap;html=1;fillColor=#f8cecc;strokeColor=#b85450;" parent="1" vertex="1">
          <mxGeometry x="20" y="140" width="1060" height="50" as="geometry" />
        </mxCell>
        <mxCell id="xDpEaBKd5AiYZeXGHIcU-22" value="" style="html=1;verticalLabelPosition=bottom;align=center;labelBackgroundColor=#ffffff;verticalAlign=top;strokeWidth=2;strokeColor=#0080F0;shadow=0;dashed=0;shape=mxgraph.ios7.icons.clock;" parent="1" vertex="1">
          <mxGeometry x="245" y="518" width="20" height="20" as="geometry" />
        </mxCell>
        <mxCell id="xDpEaBKd5AiYZeXGHIcU-23" value="" style="html=1;verticalLabelPosition=bottom;align=center;labelBackgroundColor=#ffffff;verticalAlign=top;strokeWidth=2;strokeColor=#0080F0;shadow=0;dashed=0;shape=mxgraph.ios7.icons.clock;" parent="1" vertex="1">
          <mxGeometry x="245" y="555" width="20" height="20" as="geometry" />
        </mxCell>
        <mxCell id="87xyZiGs_-V-rEVenPE8-3" value="Profile" style="text;html=1;points=[];align=left;verticalAlign=top;spacingTop=-4;fontSize=14;fontFamily=Verdana" vertex="1" parent="1">
          <mxGeometry x="1008.7" y="50" width="60" height="20" as="geometry" />
        </mxCell>
      </root>
    </mxGraphModel>
  </diagram>
</mxfile>
